<?xml version="1.0" encoding="utf-8"?><!-- Uploaded to: SVG Repo, www.svgrepo.com, Generator: SVG Repo Mixer Tools -->
<svg fill="#000000" width="800px" height="800px" viewBox="0 0 24 24" id="open-mail" data-name="Flat Line" xmlns="http://www.w3.org/2000/svg" class="icon flat-line"><path id="secondary" d="M12.55,3.17a1,1,0,0,0-1.1,0L3,9l8.45,5.63a1,1,0,0,0,1.1,0L21,9Z" style="fill: rgb(44, 169, 188); stroke-width: 2;"></path><path id="primary" d="M12.55,14.63,21,9V20a1,1,0,0,1-1,1H4a1,1,0,0,1-1-1V9l8.45,5.63A1,1,0,0,0,12.55,14.63ZM21,9l-8.45,5.63a1,1,0,0,1-1.1,0L3,9l8.45-5.83a1,1,0,0,1,1.1,0Zm-6.6,4.4L17,16M7,16l2.6-2.6" style="fill: none; stroke: rgb(0, 0, 0); stroke-linecap: round; stroke-linejoin: round; stroke-width: 2;"></path></svg>